<?xml version="1.0" encoding="UTF-8" standalone="no"?><svg xmlns="http://www.w3.org/2000/svg" xmlns:xlink="http://www.w3.org/1999/xlink" clip-rule="evenodd" stroke-miterlimit="4.00" viewBox="0 0 1024 768"><desc>SVG generated by Keynote</desc><defs></defs><g transform="matrix(1.00, 0.00, -0.00, -1.00, 0.0, 768.0)"><g><clipPath id="clip-0"><path d="M 0.0 768.0 L 1024.0 768.0 L 1024.0 0.0 L 0.0 0.0 Z M 0.0 768.0 "></path></clipPath><g clip-path="url(#clip-0)"><image xlink:href="E6A72623044D77233B0191E3C59049A2.jpeg" width="1024.00" height="768.00" transform="matrix(1.00, 0.00, -0.00, -1.00, 0.0, 768.0)"></image></g></g><g><clipPath id="clip-1"><path d="M 103.0 694.0 L 921.0 694.0 L 921.0 232.0 L 103.0 232.0 Z M 103.0 693.6 "></path></clipPath><g clip-path="url(#clip-1)"><image xlink:href="96D67AB388D3C80B1AFEF33522EB355B.jpeg" width="500.00" height="362.00" transform="matrix(1.64, 0.00, -0.00, -1.64, 103.0, 759.0)"></image></g></g><text xml:space="preserve" font-family="GillSans-Light" font-size="52.0" fill="#414141" transform="matrix(1.00, 0.00, -0.00, -1.00, 275.0, 114.0)">I</text><text xml:space="preserve" font-family="GillSans-Light" font-size="52.0" fill="#414141" transform="matrix(1.00, 0.00, -0.00, -1.00, 285.8, 114.0)">L</text><text xml:space="preserve" font-family="GillSans-Light" font-size="52.0" fill="#414141" transform="matrix(1.00, 0.00, -0.00, -1.00, 310.2, 114.0)"> </text><text xml:space="preserve" font-family="GillSans-Light" font-size="52.0" fill="#414141" transform="matrix(1.00, 0.00, -0.00, -1.00, 324.7, 114.0)">F</text><text xml:space="preserve" font-family="GillSans-Light" font-size="52.0" fill="#414141" transform="matrix(1.00, 0.00, -0.00, -1.00, 347.4, 114.0)">L</text><text xml:space="preserve" font-family="GillSans-Light" font-size="52.0" fill="#414141" transform="matrix(1.00, 0.00, -0.00, -1.00, 371.9, 114.0)">A</text><text xml:space="preserve" font-family="GillSans-Light" font-size="52.0" fill="#414141" transform="matrix(1.00, 0.00, -0.00, -1.00, 405.5, 114.0)">U</text><text xml:space="preserve" font-family="GillSans-Light" font-size="52.0" fill="#414141" transform="matrix(1.00, 0.00, -0.00, -1.00, 441.8, 114.0)">T</text><text xml:space="preserve" font-family="GillSans-Light" font-size="52.0" fill="#414141" transform="matrix(1.00, 0.00, -0.00, -1.00, 467.7, 114.0)">O</text><text xml:space="preserve" font-family="GillSans-Light" font-size="52.0" fill="#414141" transform="matrix(1.00, 0.00, -0.00, -1.00, 510.5, 114.0)"> </text><text xml:space="preserve" font-family="GillSans-Light" font-size="52.0" fill="#414141" transform="matrix(1.00, 0.00, -0.00, -1.00, 524.9, 114.0)">M</text><text xml:space="preserve" font-family="GillSans-Light" font-size="52.0" fill="#414141" transform="matrix(1.00, 0.00, -0.00, -1.00, 565.5, 114.0)">A</text><text xml:space="preserve" font-family="GillSans-Light" font-size="52.0" fill="#414141" transform="matrix(1.00, 0.00, -0.00, -1.00, 597.6, 114.0)">G</text><text xml:space="preserve" font-family="GillSans-Light" font-size="52.0" fill="#414141" transform="matrix(1.00, 0.00, -0.00, -1.00, 635.0, 114.0)">I</text><text xml:space="preserve" font-family="GillSans-Light" font-size="52.0" fill="#414141" transform="matrix(1.00, 0.00, -0.00, -1.00, 645.9, 114.0)">C</text><text xml:space="preserve" font-family="GillSans-Light" font-size="52.0" fill="#414141" transform="matrix(1.00, 0.00, -0.00, -1.00, 681.0, 114.0)">O</text><text xml:space="preserve" font-family="GillSans-Light" font-size="52.0" fill="#414141" transform="matrix(1.00, 0.00, -0.00, -1.00, 720.5, 114.0)">.</text><text xml:space="preserve" font-family="GillSans-Light" font-size="52.0" fill="#414141" transform="matrix(1.00, 0.00, -0.00, -1.00, 729.7, 114.0)">.</text><text xml:space="preserve" font-family="GillSans-Light" font-size="52.0" fill="#414141" transform="matrix(1.00, 0.00, -0.00, -1.00, 738.8, 114.0)">.</text><image xlink:href="9B1B4F1DF62750EDC952CECFB82DC771.png" width="851.00" height="496.00" transform="matrix(1.00, 0.00, -0.00, -1.00, 86.3, 708.9)" opacity="0.50"></image><path d="M 113.1 676.1 C 107.4 676.1 99.9 677.1 98.9 685.4 C 98.0 693.8 104.1 700.3 112.6 700.3 C 121.2 700.3 118.7 695.8 138.6 695.8 C 146.0 695.8 146.4 680.5 138.9 680.5 C 121.2 680.5 123.6 676.1 113.1 676.1 C 113.1 676.1 113.1 676.1 113.1 676.1 Z M 909.9 700.3 C 911.8 700.3 913.5 700.2 915.0 699.9 L 926.7 688.2 C 925.6 681.6 921.8 678.8 915.1 678.6 C 908.4 678.4 904.5 682.0 903.3 688.2 L 915.0 676.4 C 913.5 676.1 911.7 676.0 909.9 676.0 C 900.8 676.0 901.2 680.6 885.8 680.4 C 877.6 680.3 879.0 695.7 885.7 695.7 C 902.0 695.7 899.6 700.3 909.9 700.3 C 909.9 700.3 909.9 700.3 909.9 700.3 Z M 139.4 680.4 C 133.2 680.4 133.1 695.8 140.4 695.8 C 148.1 695.8 164.9 693.1 169.4 693.4 C 173.8 693.7 186.0 696.6 189.9 696.6 C 193.7 696.6 212.4 692.1 220.4 693.4 C 228.4 694.7 230.7 694.0 236.2 694.0 C 241.7 694.0 250.5 693.1 255.7 692.7 C 261.0 692.4 265.7 696.4 272.5 695.4 C 279.4 694.3 283.1 695.8 287.8 695.8 C 295.4 695.8 295.0 680.6 287.9 680.6 C 281.1 680.6 276.4 679.5 270.6 679.9 C 264.8 680.2 259.8 681.8 254.3 680.2 C 248.8 678.6 238.2 680.3 231.5 681.3 C 224.9 682.3 217.6 681.8 212.4 681.2 C 201.9 679.9 176.8 682.8 173.2 681.5 C 169.6 680.2 158.2 681.4 154.1 681.4 C 150.0 681.4 147.8 680.4 139.4 680.4 C 139.4 680.4 139.4 680.4 139.4 680.4 Z M 436.6 695.8 C 443.5 695.8 444.8 680.5 436.6 680.5 C 428.5 680.5 413.5 682.0 409.1 681.6 C 404.7 681.3 386.3 680.4 382.5 680.4 C 378.6 680.4 364.8 682.6 356.8 681.3 C 348.8 680.1 341.0 682.6 335.5 681.9 C 328.7 681.0 325.0 681.9 319.8 682.2 C 314.5 682.5 306.5 679.5 302.0 680.7 C 297.6 682.0 295.1 680.5 288.9 680.5 C 282.7 680.5 282.7 695.8 288.6 695.8 C 294.4 695.8 299.4 695.5 305.2 695.2 C 311.0 694.9 318.1 694.6 324.3 694.6 C 330.0 694.6 338.6 696.5 345.2 695.5 C 351.8 694.5 361.4 694.1 365.3 694.0 C 370.1 693.8 380.4 694.2 384.8 693.4 C 390.4 692.3 400.2 693.9 403.8 695.2 C 407.4 696.5 409.9 694.7 417.7 695.0 C 422.3 695.2 429.7 695.8 436.6 695.8 C 436.6 695.8 436.6 695.8 436.6 695.8 Z M 438.8 695.8 C 446.8 695.8 459.8 693.8 463.0 693.8 C 466.2 693.8 476.8 694.9 481.9 694.6 C 486.9 694.3 488.6 693.1 497.1 692.7 C 507.8 692.3 514.7 693.9 515.2 694.0 C 516.8 694.6 521.9 696.1 529.0 695.6 C 538.6 695.0 541.5 696.4 545.7 695.8 C 553.0 694.0 553.7 695.7 559.3 695.4 C 564.9 695.1 568.4 695.7 572.8 694.9 C 577.7 693.9 581.3 695.9 585.8 695.8 C 592.9 695.8 592.2 680.5 585.5 680.5 C 581.5 680.5 577.9 682.1 573.6 682.1 C 569.4 682.1 565.7 681.8 561.4 681.2 C 557.2 680.5 548.5 681.5 541.6 681.2 C 534.7 680.8 523.2 679.9 515.3 680.3 C 507.3 680.6 502.3 684.2 486.0 681.8 C 480.8 681.0 470.3 681.7 466.1 681.7 C 458.6 681.7 444.2 680.6 438.0 680.6 C 430.6 680.6 430.8 695.8 438.8 695.8 C 438.8 695.8 438.8 695.8 438.8 695.8 Z M 734.8 695.8 C 741.7 695.8 743.0 680.5 734.8 680.5 C 726.7 680.5 711.7 682.0 707.3 681.6 C 702.9 681.3 684.5 680.4 680.6 680.4 C 676.8 680.4 663.0 682.6 655.0 681.3 C 647.0 680.1 639.2 682.6 633.7 681.9 C 626.8 681.0 623.2 681.9 617.9 682.2 C 612.7 682.5 604.6 679.5 600.2 680.7 C 595.8 682.0 593.3 680.5 587.1 680.5 C 580.9 680.5 580.9 695.8 586.8 695.8 C 592.6 695.8 597.6 695.5 603.4 695.2 C 609.2 694.9 616.3 694.6 622.5 694.6 C 628.2 694.6 636.7 696.5 643.4 695.5 C 650.0 694.5 659.6 694.1 663.4 694.0 C 668.3 693.8 678.5 694.2 683.0 693.4 C 688.6 692.3 698.4 693.9 702.0 695.2 C 705.6 696.5 708.1 694.7 715.9 695.0 C 720.5 695.2 727.9 695.8 734.8 695.8 C 734.8 695.8 734.8 695.8 734.8 695.8 Z M 737.0 695.8 C 745.0 695.8 758.0 693.8 761.2 693.8 C 764.4 693.8 775.0 694.9 780.1 694.6 C 785.1 694.3 786.8 693.1 795.3 692.7 C 806.0 692.3 812.9 693.9 813.4 694.0 C 814.9 694.6 820.1 696.1 827.2 695.6 C 836.8 695.0 839.7 696.4 843.9 695.8 C 851.2 694.0 851.9 695.7 857.5 695.4 C 863.1 695.1 866.6 695.7 871.0 694.9 C 875.9 693.9 879.5 695.9 883.9 695.8 C 891.1 695.8 890.4 680.5 883.7 680.5 C 879.7 680.5 876.0 682.1 871.8 682.1 C 867.6 682.1 863.9 681.8 859.6 681.2 C 855.3 680.5 846.7 681.5 839.8 681.2 C 832.9 680.8 821.4 679.9 813.4 680.3 C 805.5 680.6 800.5 684.2 784.2 681.8 C 779.0 681.0 768.5 681.7 764.2 681.7 C 756.8 681.7 742.4 680.6 736.2 680.6 C 728.8 680.6 729.0 695.8 737.0 695.8 C 737.0 695.8 737.0 695.8 737.0 695.8 Z M 902.9 684.1 C 902.9 689.7 903.9 697.3 912.2 698.3 C 920.6 699.2 927.2 693.1 927.2 684.6 C 927.2 676.0 922.6 678.5 922.6 658.6 C 922.6 651.2 907.3 650.8 907.3 658.3 C 907.3 676.0 902.9 673.6 902.9 684.1 C 902.9 684.1 902.9 684.1 902.9 684.1 Z M 927.2 242.7 C 927.2 240.8 927.0 239.1 926.7 237.6 L 915.0 225.9 C 908.4 227.1 905.6 230.9 905.4 237.5 C 905.2 244.3 908.8 248.1 915.0 249.4 L 903.3 237.6 C 902.9 239.2 902.8 240.9 902.8 242.7 C 902.8 251.9 907.4 251.5 907.2 266.8 C 907.2 275.0 922.5 273.6 922.5 266.9 C 922.5 250.6 927.2 253.0 927.2 242.7 C 927.2 242.7 927.2 242.7 927.2 242.7 Z M 922.6 528.6 C 922.6 522.6 907.3 521.5 907.3 528.6 C 907.3 535.7 908.8 548.8 908.4 552.6 C 908.1 556.5 907.2 572.5 907.2 575.9 C 907.2 579.2 909.4 591.3 908.1 598.2 C 906.9 605.2 909.4 612.0 908.7 616.8 C 907.8 622.8 908.7 626.0 909.0 630.5 C 909.3 635.1 906.3 642.1 907.5 646.0 C 908.8 649.8 907.3 652.0 907.3 657.4 C 907.3 662.8 922.6 662.8 922.6 657.7 C 922.6 652.6 922.3 648.3 922.0 643.2 C 921.7 638.2 921.4 632.0 921.4 626.5 C 921.4 621.6 923.3 614.1 922.3 608.4 C 921.4 602.6 920.9 594.2 920.8 590.9 C 920.6 586.6 921.0 577.7 920.2 573.8 C 919.1 568.9 920.7 560.4 922.0 557.2 C 923.3 554.1 921.5 551.9 921.8 545.1 C 922.0 541.1 922.6 534.6 922.6 528.6 C 922.6 528.6 922.6 528.6 922.6 528.6 Z M 907.2 527.8 C 907.2 533.2 922.6 533.3 922.6 527.0 C 922.6 520.2 919.9 505.5 920.2 501.7 C 920.5 497.8 923.4 487.2 923.4 483.8 C 923.4 480.4 918.9 464.1 920.2 457.1 C 921.5 450.2 920.8 448.2 920.8 443.4 C 920.8 438.6 919.9 430.9 919.5 426.4 C 919.2 421.8 923.3 417.7 922.2 411.7 C 921.1 405.7 922.6 402.5 922.6 398.3 C 922.6 391.7 907.4 392.1 907.4 398.3 C 907.4 404.2 906.4 408.3 906.7 413.4 C 907.0 418.4 908.6 422.8 907.0 427.6 C 905.4 432.4 907.1 441.7 908.1 447.4 C 909.1 453.2 908.6 459.6 908.0 464.1 C 906.7 473.3 909.6 495.2 908.3 498.3 C 907.0 501.4 908.3 511.4 908.3 515.0 C 908.3 518.5 907.2 520.4 907.2 527.8 C 907.2 527.8 907.2 527.8 907.2 527.8 Z M 922.6 396.7 C 922.6 389.8 920.6 378.4 920.6 375.6 C 920.6 372.9 921.7 363.5 921.4 359.1 C 921.1 354.7 919.9 353.3 919.6 345.8 C 919.1 336.6 920.7 330.5 920.9 330.1 C 921.4 328.7 922.9 324.3 922.4 318.0 C 921.8 309.7 923.3 307.2 922.6 303.5 C 920.8 297.1 922.5 296.5 922.2 291.6 C 921.9 286.8 922.5 283.7 921.7 279.8 C 920.8 275.6 922.8 272.5 922.6 268.6 C 922.6 262.4 907.3 262.9 907.3 268.8 C 907.3 272.3 908.9 275.5 908.9 279.1 C 908.9 282.9 908.6 286.1 908.0 289.8 C 907.3 293.5 908.3 301.1 908.0 307.1 C 907.6 313.1 906.7 323.1 907.1 330.0 C 907.4 337.0 911.0 341.3 908.6 355.5 C 907.8 360.1 908.5 369.2 908.5 372.9 C 908.5 379.5 907.4 392.0 907.4 397.4 C 907.4 403.9 922.6 403.7 922.6 396.7 C 922.6 396.7 922.6 396.7 922.6 396.7 Z M 910.9 249.7 C 916.6 249.7 924.1 248.7 925.1 240.4 C 926.0 232.0 919.9 225.5 911.4 225.5 C 902.8 225.5 905.3 230.1 885.4 230.1 C 878.0 230.1 877.6 245.3 885.1 245.3 C 902.8 245.3 900.4 249.7 910.9 249.7 C 910.9 249.7 910.9 249.7 910.9 249.7 Z M 114.1 225.5 C 112.2 225.5 110.5 225.6 109.0 225.9 L 97.3 237.6 C 98.4 244.2 102.2 247.0 108.9 247.2 C 115.6 247.4 119.5 243.8 120.7 237.6 L 109.0 249.4 C 110.5 249.7 112.3 249.8 114.1 249.8 C 123.2 249.8 122.8 245.3 138.2 245.4 C 146.4 245.5 145.0 230.1 138.3 230.1 C 122.0 230.1 124.4 225.5 114.1 225.5 C 114.1 225.5 114.1 225.5 114.1 225.5 Z M 736.5 230.0 C 729.6 230.0 728.3 245.3 736.5 245.3 C 744.6 245.3 759.6 243.9 764.0 244.2 C 768.4 244.5 786.8 245.4 790.6 245.4 C 794.5 245.4 808.3 243.2 816.3 244.5 C 824.3 245.8 832.1 243.2 837.6 243.9 C 844.4 244.8 848.1 243.9 853.3 243.6 C 858.6 243.3 866.6 246.4 871.1 245.1 C 875.5 243.8 878.0 245.3 884.2 245.3 C 890.4 245.3 890.3 230.1 884.5 230.1 C 878.7 230.1 873.7 230.3 867.9 230.6 C 862.1 230.9 855.0 231.2 848.8 231.2 C 843.1 231.2 834.5 229.3 827.9 230.3 C 821.3 231.3 811.7 231.7 807.8 231.8 C 803.0 232.0 792.7 231.6 788.3 232.4 C 782.7 233.5 772.9 231.9 769.3 230.6 C 765.7 229.3 763.2 231.1 755.4 230.8 C 750.8 230.6 743.4 230.0 736.5 230.0 C 736.5 230.0 736.5 230.0 736.5 230.0 Z M 734.3 230.0 C 726.3 230.0 713.3 232.1 710.1 232.1 C 706.9 232.1 696.3 230.9 691.2 231.2 C 686.1 231.5 684.5 232.8 675.9 233.1 C 665.3 233.5 658.4 232.0 657.9 231.8 C 656.3 231.2 651.2 229.7 644.0 230.2 C 634.5 230.8 631.6 229.4 627.4 230.0 C 620.1 231.8 619.4 230.2 613.8 230.4 C 608.2 230.8 604.7 230.1 600.2 230.9 C 595.4 231.9 591.8 229.9 587.3 230.0 C 580.2 230.0 580.9 245.3 587.6 245.3 C 591.6 245.3 595.2 243.7 599.5 243.7 C 603.7 243.7 607.4 244.0 611.7 244.7 C 615.9 245.3 624.6 244.3 631.5 244.7 C 638.4 245.0 649.9 245.9 657.8 245.5 C 665.8 245.3 670.7 241.6 687.1 244.0 C 692.3 244.8 702.8 244.1 707.0 244.1 C 714.5 244.1 728.9 245.3 735.1 245.3 C 742.5 245.3 742.3 230.0 734.3 230.0 C 734.3 230.0 734.3 230.0 734.3 230.0 Z M 438.3 230.0 C 431.4 230.0 430.1 245.3 438.3 245.3 C 446.4 245.3 461.4 243.9 465.8 244.2 C 470.2 244.5 488.6 245.4 492.5 245.4 C 496.3 245.4 510.1 243.2 518.1 244.5 C 526.1 245.8 533.9 243.2 539.4 243.9 C 546.3 244.8 549.9 243.9 555.2 243.6 C 560.4 243.3 568.5 246.4 572.9 245.1 C 577.3 243.8 579.8 245.3 586.0 245.3 C 592.2 245.3 592.2 230.1 586.3 230.1 C 580.5 230.1 575.5 230.3 569.7 230.6 C 563.9 230.9 556.8 231.2 550.6 231.2 C 544.9 231.2 536.4 229.3 529.7 230.3 C 523.1 231.3 513.5 231.7 509.7 231.8 C 504.8 232.0 494.5 231.6 490.1 232.4 C 484.5 233.5 474.7 231.9 471.1 230.6 C 467.5 229.3 465.0 231.1 457.2 230.8 C 452.6 230.6 445.2 230.0 438.3 230.0 C 438.3 230.0 438.3 230.0 438.3 230.0 Z M 436.1 230.0 C 428.1 230.0 415.1 232.1 411.9 232.1 C 408.7 232.1 398.1 230.9 393.0 231.2 C 388.0 231.5 386.3 232.8 377.8 233.1 C 367.1 233.5 360.2 232.0 359.7 231.8 C 358.2 231.2 353.0 229.7 345.9 230.2 C 336.3 230.8 333.4 229.4 329.2 230.0 C 321.9 231.8 321.2 230.2 315.6 230.4 C 310.0 230.8 306.5 230.1 302.1 230.9 C 297.2 231.9 293.6 229.9 289.1 230.0 C 282.0 230.0 282.7 245.3 289.4 245.3 C 293.4 245.3 297.1 243.7 301.3 243.7 C 305.5 243.7 309.2 244.0 313.5 244.7 C 317.8 245.3 326.4 244.3 333.3 244.7 C 340.2 245.0 351.7 245.9 359.6 245.5 C 367.6 245.3 372.6 241.6 388.9 244.0 C 394.1 244.8 404.6 244.1 408.8 244.1 C 416.3 244.1 430.7 245.3 436.9 245.3 C 444.3 245.3 444.1 230.0 436.1 230.0 C 436.1 230.0 436.1 230.0 436.1 230.0 Z M 140.1 230.0 C 133.2 230.0 131.9 245.3 140.1 245.3 C 148.2 245.3 163.2 243.9 167.6 244.2 C 172.0 244.5 190.4 245.4 194.3 245.4 C 198.1 245.4 211.9 243.2 219.9 244.5 C 227.9 245.8 235.8 243.2 241.2 243.9 C 248.1 244.8 251.7 243.9 257.0 243.6 C 262.2 243.3 270.3 246.4 274.7 245.1 C 279.1 243.8 281.6 245.3 287.8 245.3 C 294.0 245.3 294.0 230.1 288.1 230.1 C 282.3 230.1 277.3 230.3 271.5 230.6 C 265.7 230.9 258.7 231.2 252.4 231.2 C 246.7 231.2 238.2 229.3 231.5 230.3 C 224.9 231.3 215.3 231.7 211.5 231.8 C 206.6 232.0 196.4 231.6 191.9 232.4 C 186.3 233.5 176.5 231.9 172.9 230.6 C 169.3 229.3 166.8 231.1 159.0 230.8 C 154.4 230.6 147.0 230.0 140.1 230.0 C 140.1 230.0 140.1 230.0 140.1 230.0 Z M 121.1 241.7 C 121.1 236.1 120.1 228.5 111.8 227.5 C 103.4 226.6 96.8 232.7 96.8 241.2 C 96.8 249.8 101.4 247.3 101.4 267.2 C 101.4 274.6 116.7 275.0 116.7 267.6 C 116.7 249.8 121.1 252.2 121.1 241.7 C 121.1 241.7 121.1 241.7 121.1 241.7 Z M 96.8 683.1 C 96.8 693.4 100.7 697.5 108.9 697.8 C 117.3 698.0 121.2 692.3 121.2 683.1 C 121.2 673.9 116.6 674.4 116.8 659.0 C 116.8 650.8 101.5 652.2 101.5 658.9 C 101.5 675.2 96.8 672.8 96.8 683.1 C 96.8 683.1 96.8 683.1 96.8 683.1 Z M 116.8 268.0 C 116.8 262.6 101.4 262.5 101.4 268.8 C 101.4 275.6 104.1 290.3 103.8 294.1 C 103.5 298.0 100.6 308.6 100.6 312.0 C 100.6 315.4 105.1 331.7 103.8 338.7 C 102.5 345.6 103.2 347.6 103.2 352.4 C 103.2 357.2 104.1 364.9 104.5 369.4 C 104.8 374.0 100.7 378.1 101.8 384.1 C 102.9 390.1 101.4 393.3 101.4 397.5 C 101.4 404.1 116.6 403.7 116.6 397.5 C 116.6 391.6 117.6 387.5 117.3 382.4 C 117.0 377.4 115.4 373.0 117.0 368.2 C 118.6 363.4 116.9 354.1 115.9 348.4 C 114.9 342.6 115.4 336.2 116.0 331.7 C 117.3 322.5 114.4 300.6 115.7 297.5 C 117.0 294.4 115.7 284.4 115.7 280.8 C 115.7 277.3 116.8 275.4 116.8 268.0 C 116.8 268.0 116.8 268.0 116.8 268.0 Z M 101.4 399.1 C 101.4 406.0 103.4 417.4 103.4 420.2 C 103.4 422.9 102.3 432.3 102.6 436.7 C 102.9 441.1 104.1 442.5 104.4 450.0 C 104.9 459.2 103.3 465.3 103.1 465.7 C 102.6 467.1 101.1 471.5 101.6 477.8 C 102.2 486.1 100.7 488.6 101.4 492.3 C 103.2 498.7 101.5 499.3 101.8 504.2 C 102.1 509.1 101.5 512.1 102.3 516.0 C 103.2 520.2 101.2 523.3 101.4 527.2 C 101.4 533.5 116.7 532.9 116.7 527.0 C 116.7 523.5 115.1 520.3 115.1 516.7 C 115.1 512.9 115.4 509.7 116.0 506.0 C 116.7 502.3 115.7 494.7 116.0 488.7 C 116.4 482.7 117.3 472.7 116.9 465.8 C 116.6 458.8 113.0 454.5 115.4 440.3 C 116.2 435.7 115.5 426.6 115.5 422.9 C 115.5 416.3 116.6 403.8 116.6 398.4 C 116.6 391.9 101.4 392.1 101.4 399.1 C 101.4 399.1 101.4 399.1 101.4 399.1 Z M 101.4 657.2 C 101.4 663.2 116.7 664.3 116.7 657.2 C 116.7 650.1 115.2 637.0 115.6 633.2 C 115.9 629.3 116.8 613.3 116.8 610.0 C 116.8 606.6 114.6 594.6 115.9 587.6 C 117.1 580.6 114.6 573.8 115.3 569.0 C 116.2 563.1 115.3 559.9 115.0 555.3 C 114.7 550.7 117.7 543.7 116.5 539.8 C 115.2 536.0 116.7 533.8 116.7 528.4 C 116.7 523.0 101.4 523.0 101.4 528.1 C 101.4 533.2 101.7 537.6 102.0 542.6 C 102.3 547.7 102.6 553.8 102.6 559.3 C 102.6 564.3 100.7 571.7 101.7 577.5 C 102.6 583.2 103.1 591.6 103.2 595.0 C 103.4 599.2 103.0 608.1 103.8 612.0 C 104.9 616.9 103.3 625.5 102.0 628.6 C 100.7 631.7 102.5 633.9 102.2 640.7 C 102.0 644.7 101.4 651.2 101.4 657.2 C 101.4 657.2 101.4 657.2 101.4 657.2 Z M 101.4 657.2 " fill="#000000"></path></g></svg>